<?xml version="1.0" encoding="utf-8"?>
<!-- Generator: Adobe Illustrator 27.3.1, SVG Export Plug-In . SVG Version: 6.00 Build 0)  -->
<svg class="sfcf-icon" version="1.1" id="Warstwa_1" xmlns="http://www.w3.org/2000/svg" xmlns:xlink="http://www.w3.org/1999/xlink" x="0px" y="0px"
	 viewBox="0 0 256 256" style="enable-background:new 0 0 256 256;" xml:space="preserve">
<style type="text/css">
	.st0{fill:#00FF00;}
	.st1{fill-rule:evenodd;clip-rule:evenodd;fill:#FFFFFF;}
</style>
<rect y="0" class="st0" width="256" height="256"/>
<g class="plane">
	<g>
		<path class="st1" d="M58.2,127.8c-0.1,0-0.2-0.1-0.3-0.1l-7.8-3.4c-0.9-1-1.6-2.9-1.1-5c0.4-2,2-4.5,6.8-5.7
			c9.7-2.5,48.3-13.9,84.5-24.7c18.1-5.4,35.6-10.7,48.5-14.6c6.3-1.9,11.5-3.5,15.2-4.6l-28.7,78.4c-0.1,0.3-0.2,0.6-0.2,0.9
			l-6,16.4c0,0-0.1,0.1-0.1,0.2c-0.1,0.2-0.4,0.6-0.7,1c-0.6,0.9-1.6,1.9-2.8,2.8c-2.3,1.7-6,3-11.5,0.6c-6.9-3.1-12.5-5.7-16.4-7.5
			c-1.9-0.9-3.4-1.6-4.5-2.1c-0.5-0.2-0.9-0.4-1.2-0.5l-0.3-0.1c-1.2-0.6-2.8-0.4-3.7,0.6l-26.5,27.1l-14.3-45.7
			c-0.3-0.9-0.9-1.6-1.8-2L58.2,127.8z"/>
	</g>
	<path d="M208.2,66.1c-0.8-0.9-2-1.2-3.2-0.9l0.9,3c-0.9-3-0.9-3-0.9-3l-1.5,0.4c-1,0.3-2.4,0.7-4.2,1.2c-3.6,1.1-8.8,2.6-15,4.5
		c-12.5,3.7-29.4,8.7-46.9,13.8c-35,10.3-72.2,21.1-81.4,23.5c-6.5,1.6-10.1,5.6-11.1,10.1c-0.9,4.2,0.5,8.7,3.4,11.1
		c0.2,0.2,0.5,0.3,0.8,0.5l5.4,2.3c0.1,0,0.2,0.1,0.3,0.1l27.5,11.8l14.9,47c0.3,1,1.2,1.8,2.2,2.1c1.1,0.3,2.2-0.1,2.9-0.8
		l27.7-27.9c1,0.4,2.3,1,3.9,1.8c3.8,1.7,9.2,4.2,15.9,7.1c7.5,3.3,13.3,1.6,17.2-1.1c1.9-1.3,3.2-2.8,4.1-4c0.4-0.6,0.8-1.1,1-1.5
		c0.1-0.2,0.2-0.3,0.3-0.5c0,0,0,0,0,0c0,0,0,0,0,0c0,0,0-0.1,0-0.1c0,0,0,0,0,0c0,0,0,0,0,0l0,0l0,0c0,0,0,0-2.8-1.4l2.8,1.4
		c0.1-0.1,0.1-0.2,0.1-0.3l5.9-15.9c0.1-0.3,0.2-0.6,0.2-0.8l29.9-80.3C209.2,68.2,209,66.9,208.2,66.1z M59.9,128.3
		c-0.1,0-0.2-0.1-0.3-0.1l-7.5-3.2c-0.8-0.9-1.5-2.8-1.1-4.8c0.4-1.9,2-4.3,6.5-5.4c9.3-2.4,46.7-13.3,81.6-23.5
		c14.8-4.4,29.2-8.6,40.8-12.1l-94.3,60.3L59.9,128.3z M88.3,142.8l106.3-68c2.4-0.7,4.5-1.3,6.3-1.9l-1.7,4.4l-90.4,73.5l-0.5,0.4
		l-7.7,30L88.3,142.8z M111.3,156.2c0.1,0.1,0.3,0.2,0.4,0.2l12.6,5.7l-19.6,19.7L111.3,156.2z M173.1,147.6
		c-0.1,0.3-0.2,0.6-0.2,0.8l-5.8,15.6c0,0-0.1,0.1-0.1,0.2c-0.1,0.2-0.4,0.6-0.7,1c-0.6,0.8-1.5,1.8-2.7,2.7
		c-2.3,1.6-5.8,2.9-11.1,0.5c-2.3-1-4.4-1.9-6.3-2.8l-14.3-6.5c-0.2-0.1-0.5-0.2-0.6-0.3l-0.3-0.1l-0.1,0l0,0h0
		c-0.1,0-0.1,0-0.2-0.1l-15.8-7.2l81.4-66.2L173.1,147.6z"/>
	</g>

	<style>
		.sfcf-icon .plane {
			animation: sfcf-flying 7s linear 0s infinite;
		}

		@keyframes sfcf-flying {
			0% {
				transform: translateY(0);
			}

			25% {
				transform: translateY(-20px);
			}

			75% {
				transform: translateY(20px);
			}

			100% {
				transform: translateY(0);
			}
		}
	</style>
</svg>
